<svg width="20" height="20" viewBox="0 0 20 20" fill="none" xmlns="http://www.w3.org/2000/svg">
<path d="M10.125 16.125C9.78333 16.125 9.5 15.8417 9.5 15.5V13.75C9.5 13.4083 9.78333 13.125 10.125 13.125C10.4667 13.125 10.75 13.4083 10.75 13.75V15.5C10.75 15.8417 10.4667 16.125 10.125 16.125Z" fill="white"/>
<path d="M14.9163 18.959H5.33301V17.5007C5.33301 16.234 6.35801 15.209 7.62467 15.209H12.6247C13.8913 15.209 14.9163 16.234 14.9163 17.5007V18.959ZM6.58301 17.709H13.6663V17.5007C13.6663 16.9257 13.1997 16.459 12.6247 16.459H7.62467C7.04967 16.459 6.58301 16.9257 6.58301 17.5007V17.709Z" fill="white"/>
<path d="M15.125 18.959H5.125C4.78333 18.959 4.5 18.6757 4.5 18.334C4.5 17.9923 4.78333 17.709 5.125 17.709H15.125C15.4667 17.709 15.75 17.9923 15.75 18.334C15.75 18.6757 15.4667 18.959 15.125 18.959Z" fill="white"/>
<path d="M15.3586 10.3668C15.1836 10.3668 15.0086 10.2918 14.8836 10.1501C14.7253 9.9668 14.6836 9.70846 14.7836 9.4918C15.0669 8.8418 15.2086 8.15013 15.2086 7.42513V4.92513C15.2086 4.63346 15.1586 4.35013 15.0586 4.05013C15.0503 4.02513 15.0419 3.9918 15.0336 3.95846C15.0086 3.83346 15.0003 3.70846 15.0003 3.5918C15.0003 3.25013 15.2836 2.9668 15.6253 2.9668H16.1253C17.6169 2.9668 18.8336 4.2168 18.8336 5.75846C18.8336 7.03346 18.3086 8.2918 17.4003 9.20013C17.3836 9.2168 17.3336 9.25846 17.3253 9.2668C16.8336 9.67513 16.2753 10.1335 15.5253 10.3418C15.4669 10.3585 15.4169 10.3668 15.3586 10.3668ZM16.4003 4.2418C16.4419 4.4668 16.4586 4.70013 16.4586 4.92513V7.42513C16.4586 7.7668 16.4336 8.0918 16.3836 8.42513C16.4336 8.38346 16.4753 8.35013 16.5253 8.30846C17.1919 7.6418 17.5836 6.70846 17.5836 5.75846C17.5836 5.00846 17.0753 4.37513 16.4003 4.2418Z" fill="white"/>
<path d="M4.65033 10.3333C4.58366 10.3333 4.52533 10.325 4.45866 10.3C3.77533 10.0833 3.13366 9.68333 2.60033 9.15C1.64199 8.09167 1.16699 6.93333 1.16699 5.70833C1.16699 4.19167 2.35866 3 3.87533 3H4.41699C4.62533 3 4.82533 3.10833 4.94199 3.28333C5.05866 3.45833 5.07533 3.68333 4.99199 3.875C4.85866 4.175 4.79199 4.51667 4.79199 4.875V7.375C4.79199 8.09167 4.93366 8.79167 5.22533 9.45833C5.32533 9.68333 5.27533 9.94167 5.11699 10.125C4.99199 10.2583 4.82533 10.3333 4.65033 10.3333ZM3.58366 4.275C2.90866 4.40833 2.41699 4.99167 2.41699 5.70833C2.41699 6.61667 2.78366 7.49167 3.50866 8.29167C3.54199 8.33333 3.58366 8.36667 3.62533 8.4C3.56699 8.05833 3.54199 7.71667 3.54199 7.375V4.875C3.54199 4.675 3.55866 4.475 3.58366 4.275Z" fill="white"/>
<path d="M10.0003 13.9577C6.44199 13.9577 3.54199 11.0577 3.54199 7.49935V4.99935C3.54199 2.81602 5.31699 1.04102 7.50033 1.04102H12.5003C14.6837 1.04102 16.4587 2.81602 16.4587 4.99935V7.49935C16.4587 11.0577 13.5587 13.9577 10.0003 13.9577ZM7.50033 2.29102C6.00866 2.29102 4.79199 3.50768 4.79199 4.99935V7.49935C4.79199 10.3743 7.12533 12.7077 10.0003 12.7077C12.8753 12.7077 15.2087 10.3743 15.2087 7.49935V4.99935C15.2087 3.50768 13.992 2.29102 12.5003 2.29102H7.50033Z" fill="white"/>
</svg>
