<svg width="20" height="21" viewBox="0 0 20 21" fill="none" xmlns="http://www.w3.org/2000/svg">
<path d="M7.90033 17.7421C7.48366 17.7421 7.192 17.6005 7.017 17.4671C6.68366 17.2255 6.16699 16.6005 6.49199 15.2005L6.96697 13.1505C7.00864 12.9755 6.91698 12.6588 6.79198 12.5255L5.13365 10.8671C4.25865 9.99213 4.33365 9.23379 4.45031 8.85879C4.56698 8.48379 4.95031 7.82545 6.16698 7.61712L8.29199 7.26712C8.45033 7.24212 8.70865 7.05046 8.77532 6.90879L9.95032 4.55879C10.517 3.42545 11.267 3.25879 11.667 3.25879C12.067 3.25879 12.817 3.42545 13.3836 4.55879L14.5587 6.90879C14.6337 7.05046 14.8836 7.24212 15.042 7.26712L17.167 7.61712C18.3837 7.81712 18.767 8.48379 18.8837 8.85879C19.0003 9.23379 19.0753 9.99213 18.2003 10.8671L16.542 12.5255C16.417 12.6505 16.3253 12.9755 16.367 13.1505L16.842 15.2005C17.167 16.6088 16.6503 17.2255 16.317 17.4671C15.9836 17.7088 15.242 18.0171 13.992 17.2755L12.0003 16.0921C11.8336 15.9921 11.4836 15.9921 11.317 16.0921L9.32532 17.2755C8.75032 17.6255 8.26699 17.7421 7.90033 17.7421ZM11.667 4.50879C11.5336 4.50879 11.292 4.66712 11.067 5.11712L9.89198 7.46712C9.64198 7.97546 9.05032 8.4088 8.49199 8.50046L6.367 8.85046C5.892 8.93379 5.67533 9.1088 5.63366 9.24213C5.59199 9.37546 5.66698 9.64213 6.00864 9.9838L7.66699 11.6421C8.09199 12.0671 8.31699 12.8421 8.18366 13.4255L7.70865 15.4755C7.56698 16.0671 7.65864 16.3838 7.75031 16.4588C7.84197 16.5255 8.17531 16.5171 8.69198 16.2005L10.692 15.0171C11.2503 14.6838 12.092 14.6838 12.642 15.0171L14.6336 16.2005C15.1586 16.5088 15.492 16.5255 15.5837 16.4588C15.6753 16.3921 15.767 16.0755 15.6253 15.4755L15.1503 13.4255C15.017 12.8338 15.2336 12.0671 15.667 11.6421L17.3253 9.9838C17.667 9.64213 17.742 9.36713 17.7003 9.24213C17.6586 9.11713 17.442 8.93379 16.967 8.85046L14.842 8.50046C14.2836 8.4088 13.692 7.97546 13.442 7.46712L12.267 5.11712C12.042 4.66712 11.8003 4.50879 11.667 4.50879Z" fill="white"/>
<path d="M6.6665 5.29199H1.6665C1.32484 5.29199 1.0415 5.00866 1.0415 4.66699C1.0415 4.32533 1.32484 4.04199 1.6665 4.04199H6.6665C7.00817 4.04199 7.2915 4.32533 7.2915 4.66699C7.2915 5.00866 7.00817 5.29199 6.6665 5.29199Z" fill="white"/>
<path d="M4.1665 16.958H1.6665C1.32484 16.958 1.0415 16.6747 1.0415 16.333C1.0415 15.9913 1.32484 15.708 1.6665 15.708H4.1665C4.50817 15.708 4.7915 15.9913 4.7915 16.333C4.7915 16.6747 4.50817 16.958 4.1665 16.958Z" fill="white"/>
<path d="M2.50008 11.125H1.66675C1.32508 11.125 1.04175 10.8417 1.04175 10.5C1.04175 10.1583 1.32508 9.875 1.66675 9.875H2.50008C2.84175 9.875 3.12508 10.1583 3.12508 10.5C3.12508 10.8417 2.84175 11.125 2.50008 11.125Z" fill="white"/>
</svg>
